# xmcd
#
# Track frame offsets:
#        150
#        25552
#        41445
#
# Disc length: 815 seconds
#
# Revision: 0
# Processed by: cddbd v1.5.1PL0 Copyright (c) Steve Scherf et al.
# Submitted via: ExactAudioCopy v0.95a3
#
DISCID=15032d03
DTITLE=FAKE?  - HERE WE GO
DYEAR=2002
DGENRE=Rock
TTITLE0=HERE WE GO
TTITLE1=SOMEDAY (REMASTERING VER.)
TTITLE2=TASTE MAXIMUM (REMASTERING VER.)
EXTD=
EXTT0=
EXTT1=
EXTT2=
PLAYORDER=
